# xmcd
# 
# Track frame offsets:
#     150
#     20511
#     45586
#     73580
#     95965
#     133379
#     153439
#     180529
#     196545
#     211889
# 
# Disc length: 3150
# 
# Revision: 4
# Processed by: cddbd v1.5.2PL0 Copyright (c) Steve Scherf et al.
# Submitted via: fre:ac v1.0.31
# 
DISCID=8a0c4c0a
DTITLE=Uriah Heep - Living the Dream
DYEAR=2018
DGENRE=Hard Rock
TTITLE0=Grazed by Heaven
TTITLE1=Living the Dream
TTITLE2=Take Away My Soul
TTITLE3=Knocking at My Door
TTITLE4=Rocks in the Road
TTITLE5=Waters Flowin'
TTITLE6=It's All Been Said
TTITLE7=Goodbuy to Innocence
TTITLE8=Falling Under Your Spell
TTITLE9=Dreams of Yesteryear
EXTD=
EXTT0=
EXTT1=
EXTT2=
EXTT3=
EXTT4=
EXTT5=
EXTT6=
EXTT7=
EXTT8=
EXTT9=
PLAYORDER=
